<?xml version="1.0" standalone="no"?>
<!DOCTYPE svg PUBLIC "-//W3C//DTD SVG 20010904//EN"
 "http://www.w3.org/TR/2001/REC-SVG-20010904/DTD/svg10.dtd">
<svg version="1.0" xmlns="http://www.w3.org/2000/svg"
 width="700.000000pt" height="700.000000pt" viewBox="0 0 700.000000 700.000000"
 preserveAspectRatio="xMidYMid meet">
<metadata>
Created by potrace 1.14, written by Peter Selinger 2001-2017
</metadata>
<g transform="translate(0.000000,700.000000) scale(0.100000,-0.100000)"
fill="#000000" stroke="none">
<path d="M1184 5717 c-236 -246 -403 -484 -560 -797 -147 -293 -261 -662 -300
-965 -2 -22 -7 -51 -9 -65 -25 -156 -26 -641 -1 -767 3 -12 7 -48 11 -79 8
-74 31 -199 56 -299 138 -556 415 -1060 800 -1458 l99 -102 106 110 c58 61
149 154 201 208 52 54 93 102 91 107 -2 5 -35 42 -74 82 -185 192 -328 394
-449 637 -86 171 -145 322 -186 474 -21 79 -55 243 -64 307 -3 25 -8 52 -10
60 -23 89 -23 460 -1 655 21 178 119 552 172 653 8 15 14 31 14 36 0 17 138
284 190 366 106 170 253 355 368 463 23 22 42 44 42 48 0 8 0 9 -229 248 -90
94 -167 171 -171 171 -4 0 -47 -42 -96 -93z"/>
<path d="M5568 5658 c-80 -84 -169 -177 -197 -206 -28 -29 -51 -55 -51 -58 0
-3 41 -49 91 -103 455 -480 710 -1115 713 -1776 1 -278 -38 -535 -122 -810
-48 -155 -174 -428 -262 -570 -106 -168 -250 -352 -364 -465 -31 -30 -56 -58
-56 -63 0 -4 49 -58 109 -120 59 -62 149 -155 200 -207 l91 -95 88 90 c321
328 577 746 728 1190 38 112 90 299 100 360 3 22 8 43 10 46 3 5 15 74 29 174
4 22 8 51 10 64 26 156 26 586 0 781 -2 19 -7 55 -10 80 -3 25 -8 52 -10 60
-2 8 -7 30 -10 48 -3 17 -7 46 -10 62 -11 63 -76 299 -108 395 -150 439 -400
850 -726 1188 -46 48 -87 87 -91 87 -4 0 -72 -69 -152 -152z"/>
<path d="M2020 4903 c-99 -105 -260 -316 -260 -340 0 -4 -6 -14 -14 -22 -24
-27 -122 -231 -160 -333 -20 -53 -48 -143 -62 -199 -48 -192 -59 -280 -59
-499 0 -211 10 -313 45 -465 6 -27 13 -57 15 -65 2 -8 15 -53 30 -100 88 -277
249 -551 449 -765 l84 -90 37 40 c42 45 229 240 313 327 l55 57 -52 52 c-53
55 -147 177 -187 245 -20 33 -84 160 -115 229 -19 41 -59 188 -76 278 -21 113
-23 369 -4 472 8 39 15 78 17 87 17 99 91 292 153 401 54 94 144 215 212 285
l52 53 -44 46 c-24 25 -62 65 -84 88 -127 133 -275 285 -279 285 -2 0 -32 -30
-66 -67z"/>
<path d="M4870 4931 c-31 -35 -166 -177 -313 -328 -50 -51 -50 -53 -31 -70 19
-18 76 -82 123 -137 13 -16 48 -66 78 -112 196 -301 269 -667 208 -1039 -42
-256 -185 -541 -369 -735 l-58 -62 50 -52 c27 -28 71 -73 97 -101 26 -27 95
-99 153 -159 l105 -110 61 65 c303 318 512 760 554 1171 9 92 9 394 0 473 -46
384 -202 752 -447 1054 -49 61 -162 181 -170 181 -3 0 -22 -18 -41 -39z"/>
<path d="M3435 4373 c-275 -26 -512 -165 -661 -390 -47 -69 -132 -253 -119
-253 3 0 0 -12 -5 -26 -12 -31 -24 -140 -23 -214 2 -228 86 -430 247 -598 342
-357 921 -353 1262 9 183 195 264 449 230 722 -4 29 -6 54 -6 57 3 14 -66 192
-93 240 -120 217 -339 382 -578 434 -71 16 -191 24 -254 19z"/>
</g>
</svg>
